<svg xmlns="http://www.w3.org/2000/svg" width="820" height="500" viewBox="0 0 820 500">
  <rect width="100%" height="100%" fill="white"/>
  <text x="410.0" y="28" text-anchor="middle" font-family="Arial" font-size="18">Hypervolume by generation</text>
  <line x1="60" y1="440" x2="760" y2="440" stroke="#222"/>
  <line x1="60" y1="60" x2="60" y2="440" stroke="#222"/>
  <text x="410.0" y="484" text-anchor="middle" font-family="Arial" font-size="13">generation</text>
  <text transform="translate(18 250.0) rotate(-90)" text-anchor="middle" font-family="Arial" font-size="13">hypervolume</text>
  <path d="M 60.0 431.9 L 80.6 421.7 L 101.2 419.3 L 121.8 419.3 L 142.4 419.3 L 162.9 419.2 L 183.5 419.2 L 204.1 419.1 L 224.7 419.0 L 245.3 419.0 L 265.9 418.3 L 286.5 417.6 L 307.1 416.5 L 327.6 416.5 L 348.2 416.5 L 368.8 416.5 L 389.4 416.5 L 410.0 416.5 L 430.6 416.5 L 451.2 416.5 L 471.8 416.1 L 492.4 416.1 L 512.9 416.1 L 533.5 416.1 L 554.1 416.1 L 574.7 415.9 L 595.3 415.9 L 615.9 415.9 L 636.5 415.9 L 657.1 415.1 L 677.6 415.1 L 698.2 415.0 L 718.8 414.9 L 739.4 414.9 L 760.0 414.9" fill="none" stroke="#1f77b4" stroke-width="2"/>
<text x="768" y="60" font-size="10" fill="#1f77b4">user125_nsgaii_diversity</text>
<path d="M 60.0 331.4 L 80.6 329.3 L 101.2 318.0 L 121.8 315.9 L 142.4 315.9 L 162.9 315.9 L 183.5 315.1 L 204.1 303.2 L 224.7 302.6 L 245.3 302.6 L 265.9 302.5 L 286.5 302.5 L 307.1 298.6 L 327.6 297.8 L 348.2 296.4 L 368.8 296.4 L 389.4 295.0 L 410.0 295.0 L 430.6 295.0 L 451.2 295.0 L 471.8 295.0 L 492.4 295.0 L 512.9 294.9 L 533.5 294.9 L 554.1 294.9 L 574.7 294.9 L 595.3 294.7 L 615.9 293.6 L 636.5 293.6 L 657.1 293.6 L 677.6 292.2 L 698.2 292.2 L 718.8 292.2 L 739.4 292.2 L 760.0 291.7" fill="none" stroke="#d62728" stroke-width="2"/>
<text x="768" y="76" font-size="10" fill="#d62728">user125_nsgaii_nodiversity</text>
<path d="M 60.0 440.0 L 80.6 434.5 L 101.2 434.2 L 121.8 432.7 L 142.4 431.0 L 162.9 429.4 L 183.5 429.4 L 204.1 427.4 L 224.7 413.2 L 245.3 411.2 L 265.9 410.9 L 286.5 407.5 L 307.1 406.7 L 327.6 406.7 L 348.2 406.6 L 368.8 405.6 L 389.4 405.6 L 410.0 405.5 L 430.6 405.5 L 451.2 405.5 L 471.8 404.8 L 492.4 404.7 L 512.9 402.1 L 533.5 402.1 L 554.1 401.4 L 574.7 401.4 L 595.3 401.3 L 615.9 401.3 L 636.5 401.3 L 657.1 401.3 L 677.6 401.2 L 698.2 401.2 L 718.8 400.6 L 739.4 400.5 L 760.0 400.5" fill="none" stroke="#2ca02c" stroke-width="2"/>
<text x="768" y="92" font-size="10" fill="#2ca02c">user125_spea2_diversity</text>
<path d="M 60.0 352.0 L 80.6 348.4 L 101.2 331.8 L 121.8 331.2 L 142.4 331.2 L 162.9 322.7 L 183.5 322.7 L 204.1 310.2 L 224.7 310.2 L 245.3 310.2 L 265.9 304.1 L 286.5 304.1 L 307.1 304.1 L 327.6 304.1 L 348.2 304.1 L 368.8 304.1 L 389.4 304.1 L 410.0 304.1 L 430.6 303.2 L 451.2 302.0 L 471.8 301.1 L 492.4 301.1 L 512.9 301.1 L 533.5 300.4 L 554.1 300.4 L 574.7 300.2 L 595.3 300.2 L 615.9 300.2 L 636.5 300.2 L 657.1 300.2 L 677.6 298.3 L 698.2 298.3 L 718.8 298.3 L 739.4 297.5 L 760.0 297.5" fill="none" stroke="#9467bd" stroke-width="2"/>
<text x="768" y="108" font-size="10" fill="#9467bd">user125_spea2_nodiversity</text>
<path d="M 60.0 358.4 L 80.6 335.4 L 101.2 334.9 L 121.8 326.8 L 142.4 326.8 L 162.9 326.8 L 183.5 315.5 L 204.1 313.4 L 224.7 312.3 L 245.3 307.4 L 265.9 306.7 L 286.5 306.4 L 307.1 306.4 L 327.6 306.4 L 348.2 294.1 L 368.8 294.1 L 389.4 292.5 L 410.0 291.6 L 430.6 291.6 L 451.2 291.6 L 471.8 291.2 L 492.4 291.2 L 512.9 291.2 L 533.5 291.0 L 554.1 291.0 L 574.7 291.0 L 595.3 291.0 L 615.9 291.0 L 636.5 288.0 L 657.1 287.8 L 677.6 287.8 L 698.2 287.8 L 718.8 287.7 L 739.4 282.2 L 760.0 276.9" fill="none" stroke="#ff7f0e" stroke-width="2"/>
<text x="768" y="124" font-size="10" fill="#ff7f0e">user3_nsgaii_diversity</text>
<path d="M 60.0 174.6 L 80.6 174.6 L 101.2 174.5 L 121.8 162.2 L 142.4 162.2 L 162.9 161.9 L 183.5 157.0 L 204.1 146.1 L 224.7 129.4 L 245.3 127.1 L 265.9 123.3 L 286.5 122.9 L 307.1 119.7 L 327.6 119.6 L 348.2 111.6 L 368.8 110.1 L 389.4 109.6 L 410.0 109.2 L 430.6 109.2 L 451.2 98.9 L 471.8 98.8 L 492.4 88.7 L 512.9 74.5 L 533.5 74.5 L 554.1 69.1 L 574.7 69.1 L 595.3 66.3 L 615.9 65.2 L 636.5 65.2 L 657.1 65.2 L 677.6 65.2 L 698.2 64.8 L 718.8 64.6 L 739.4 65.6 L 760.0 60.0" fill="none" stroke="#17becf" stroke-width="2"/>
<text x="768" y="140" font-size="10" fill="#17becf">user3_nsgaii_nodiversity</text>
<path d="M 60.0 375.2 L 80.6 369.9 L 101.2 368.6 L 121.8 332.1 L 142.4 323.8 L 162.9 321.0 L 183.5 316.1 L 204.1 316.1 L 224.7 293.2 L 245.3 293.2 L 265.9 293.2 L 286.5 293.2 L 307.1 293.1 L 327.6 289.3 L 348.2 273.5 L 368.8 273.5 L 389.4 273.5 L 410.0 273.5 L 430.6 273.0 L 451.2 265.7 L 471.8 265.7 L 492.4 265.4 L 512.9 258.4 L 533.5 258.0 L 554.1 258.0 L 574.7 257.2 L 595.3 257.2 L 615.9 257.2 L 636.5 257.2 L 657.1 257.0 L 677.6 257.0 L 698.2 254.9 L 718.8 252.1 L 739.4 252.1 L 760.0 251.4" fill="none" stroke="#8c564b" stroke-width="2"/>
<text x="768" y="156" font-size="10" fill="#8c564b">user3_spea2_diversity</text>
<path d="M 60.0 218.0 L 80.6 208.0 L 101.2 207.7 L 121.8 194.4 L 142.4 187.0 L 162.9 187.0 L 183.5 182.9 L 204.1 164.1 L 224.7 152.1 L 245.3 151.6 L 265.9 147.5 L 286.5 147.2 L 307.1 147.2 L 327.6 133.4 L 348.2 133.4 L 368.8 112.6 L 389.4 111.9 L 410.0 111.8 L 430.6 103.8 L 451.2 103.8 L 471.8 103.8 L 492.4 103.3 L 512.9 102.9 L 533.5 102.9 L 554.1 102.7 L 574.7 79.1 L 595.3 79.1 L 615.9 79.0 L 636.5 74.7 L 657.1 73.2 L 677.6 72.5 L 698.2 72.4 L 718.8 66.4 L 739.4 66.4 L 760.0 66.2" fill="none" stroke="#7f7f7f" stroke-width="2"/>
<text x="768" y="172" font-size="10" fill="#7f7f7f">user3_spea2_nodiversity</text>
</svg>
