<svg xmlns="http://www.w3.org/2000/svg" width="820" height="500" viewBox="0 0 820 500">
  <rect width="100%" height="100%" fill="white"/>
  <text x="410.0" y="28" text-anchor="middle" font-family="Arial" font-size="18">Hypervolume by generation</text>
  <line x1="60" y1="440" x2="760" y2="440" stroke="#222"/>
  <line x1="60" y1="60" x2="60" y2="440" stroke="#222"/>
  <text x="410.0" y="484" text-anchor="middle" font-family="Arial" font-size="13">generation</text>
  <text transform="translate(18 250.0) rotate(-90)" text-anchor="middle" font-family="Arial" font-size="13">hypervolume</text>
  <path d="M 60.0 331.4 L 235.0 331.4 L 410.0 331.4 L 585.0 329.3 L 760.0 304.8" fill="none" stroke="#1f77b4" stroke-width="2"/>
<text x="768" y="60" font-size="10" fill="#1f77b4">user1_nsgaii_diversity</text>
<path d="M 60.0 194.7 L 235.0 158.8 L 410.0 158.8 L 585.0 158.0 L 760.0 158.0" fill="none" stroke="#d62728" stroke-width="2"/>
<text x="768" y="76" font-size="10" fill="#d62728">user1_nsgaii_nodiversity</text>
<path d="M 60.0 358.1 L 235.0 241.5 L 410.0 241.5 L 585.0 241.5 L 760.0 241.5" fill="none" stroke="#2ca02c" stroke-width="2"/>
<text x="768" y="92" font-size="10" fill="#2ca02c">user1_spea2_diversity</text>
<path d="M 60.0 242.6 L 235.0 121.8 L 410.0 116.1 L 585.0 116.1 L 760.0 116.1" fill="none" stroke="#9467bd" stroke-width="2"/>
<text x="768" y="108" font-size="10" fill="#9467bd">user1_spea2_nodiversity</text>
<path d="M 60.0 440.0 L 235.0 327.9 L 410.0 297.2 L 585.0 291.9 L 760.0 284.6" fill="none" stroke="#ff7f0e" stroke-width="2"/>
<text x="768" y="124" font-size="10" fill="#ff7f0e">user2_nsgaii_diversity</text>
<path d="M 60.0 364.7 L 235.0 70.0 L 410.0 62.4 L 585.0 62.4 L 760.0 60.0" fill="none" stroke="#17becf" stroke-width="2"/>
<text x="768" y="140" font-size="10" fill="#17becf">user2_nsgaii_nodiversity</text>
<path d="M 60.0 376.6 L 235.0 303.4 L 410.0 303.0 L 585.0 292.9 L 760.0 283.9" fill="none" stroke="#8c564b" stroke-width="2"/>
<text x="768" y="156" font-size="10" fill="#8c564b">user2_spea2_diversity</text>
<path d="M 60.0 187.2 L 235.0 153.4 L 410.0 153.4 L 585.0 153.2 L 760.0 153.2" fill="none" stroke="#7f7f7f" stroke-width="2"/>
<text x="768" y="172" font-size="10" fill="#7f7f7f">user2_spea2_nodiversity</text>
</svg>
