<svg xmlns="http://www.w3.org/2000/svg" width="720" height="480" viewBox="0 0 720 480">
  <rect width="100%" height="100%" fill="white"/>
  <text x="360.0" y="28" text-anchor="middle" font-family="Arial" font-size="18">user3_spea2_diversity: cost vs time</text>
  <line x1="60" y1="420" x2="660" y2="420" stroke="#222"/>
  <line x1="60" y1="60" x2="60" y2="420" stroke="#222"/>
  <text x="360.0" y="464" text-anchor="middle" font-family="Arial" font-size="13">cost</text>
  <text transform="translate(18 240.0) rotate(-90)" text-anchor="middle" font-family="Arial" font-size="13">time</text>
  <circle cx="359.8" cy="250.3" r="5" fill="rgb(30,142,150)" opacity="0.8"/>
<circle cx="62.7" cy="190.3" r="5" fill="rgb(30,201,150)" opacity="0.8"/>
<circle cx="359.8" cy="250.3" r="5" fill="rgb(30,142,150)" opacity="0.8"/>
<circle cx="158.8" cy="420.0" r="5" fill="rgb(30,220,150)" opacity="0.8"/>
<circle cx="268.0" cy="233.4" r="5" fill="rgb(30,147,150)" opacity="0.8"/>
<circle cx="100.9" cy="356.2" r="5" fill="rgb(30,186,150)" opacity="0.8"/>
<circle cx="105.9" cy="60.0" r="5" fill="rgb(30,171,150)" opacity="0.8"/>
<circle cx="342.0" cy="336.6" r="5" fill="rgb(30,158,150)" opacity="0.8"/>
<circle cx="430.1" cy="270.9" r="5" fill="rgb(30,109,150)" opacity="0.8"/>
<circle cx="606.6" cy="254.1" r="5" fill="rgb(30,87,150)" opacity="0.8"/>
<circle cx="660.0" cy="254.1" r="5" fill="rgb(30,70,150)" opacity="0.8"/>
<circle cx="60.0" cy="141.6" r="5" fill="rgb(30,202,150)" opacity="0.8"/>
<circle cx="648.8" cy="254.1" r="5" fill="rgb(30,75,150)" opacity="0.8"/>
<circle cx="100.9" cy="356.2" r="5" fill="rgb(30,186,150)" opacity="0.8"/>
<circle cx="648.8" cy="254.1" r="5" fill="rgb(30,75,150)" opacity="0.8"/>
<circle cx="606.6" cy="254.1" r="5" fill="rgb(30,87,150)" opacity="0.8"/>
<circle cx="359.8" cy="250.3" r="5" fill="rgb(30,142,150)" opacity="0.8"/>
<circle cx="158.8" cy="420.0" r="5" fill="rgb(30,220,150)" opacity="0.8"/>
<circle cx="606.6" cy="254.1" r="5" fill="rgb(30,87,150)" opacity="0.8"/>
<circle cx="648.8" cy="254.1" r="5" fill="rgb(30,75,150)" opacity="0.8"/>
<circle cx="158.8" cy="420.0" r="5" fill="rgb(30,220,150)" opacity="0.8"/>
<circle cx="648.8" cy="254.1" r="5" fill="rgb(30,75,150)" opacity="0.8"/>
<circle cx="100.9" cy="356.2" r="5" fill="rgb(30,186,150)" opacity="0.8"/>
<circle cx="648.8" cy="254.1" r="5" fill="rgb(30,75,150)" opacity="0.8"/>
<circle cx="648.8" cy="254.1" r="5" fill="rgb(30,75,150)" opacity="0.8"/>
<circle cx="60.0" cy="141.6" r="5" fill="rgb(30,202,150)" opacity="0.8"/>
<circle cx="174.0" cy="78.8" r="5" fill="rgb(30,114,150)" opacity="0.8"/>
<circle cx="174.0" cy="78.8" r="5" fill="rgb(30,114,150)" opacity="0.8"/>
<circle cx="174.0" cy="78.8" r="5" fill="rgb(30,114,150)" opacity="0.8"/>
<circle cx="174.0" cy="78.8" r="5" fill="rgb(30,114,150)" opacity="0.8"/>
<circle cx="174.0" cy="78.8" r="5" fill="rgb(30,114,150)" opacity="0.8"/>
<circle cx="112.1" cy="356.2" r="5" fill="rgb(30,181,150)" opacity="0.8"/>
<circle cx="112.1" cy="356.2" r="5" fill="rgb(30,181,150)" opacity="0.8"/>
<circle cx="112.1" cy="356.2" r="5" fill="rgb(30,181,150)" opacity="0.8"/>
<circle cx="158.8" cy="420.0" r="5" fill="rgb(30,220,150)" opacity="0.8"/>
<circle cx="174.0" cy="78.8" r="5" fill="rgb(30,114,150)" opacity="0.8"/>
<circle cx="158.8" cy="420.0" r="5" fill="rgb(30,220,150)" opacity="0.8"/>
<circle cx="158.8" cy="420.0" r="5" fill="rgb(30,220,150)" opacity="0.8"/>
<circle cx="158.8" cy="420.0" r="5" fill="rgb(30,220,150)" opacity="0.8"/>
<circle cx="100.9" cy="356.2" r="5" fill="rgb(30,186,150)" opacity="0.8"/>
<circle cx="112.1" cy="356.2" r="5" fill="rgb(30,181,150)" opacity="0.8"/>
<circle cx="112.1" cy="356.2" r="5" fill="rgb(30,181,150)" opacity="0.8"/>
<circle cx="112.1" cy="356.2" r="5" fill="rgb(30,181,150)" opacity="0.8"/>
<circle cx="105.9" cy="60.0" r="5" fill="rgb(30,171,150)" opacity="0.8"/>
<circle cx="174.0" cy="78.8" r="5" fill="rgb(30,114,150)" opacity="0.8"/>
<circle cx="174.0" cy="78.8" r="5" fill="rgb(30,114,150)" opacity="0.8"/>
<circle cx="174.0" cy="78.8" r="5" fill="rgb(30,114,150)" opacity="0.8"/>
<circle cx="174.0" cy="78.8" r="5" fill="rgb(30,114,150)" opacity="0.8"/>
<circle cx="174.0" cy="78.8" r="5" fill="rgb(30,114,150)" opacity="0.8"/>
<circle cx="174.0" cy="78.8" r="5" fill="rgb(30,114,150)" opacity="0.8"/>
</svg>
