<svg xmlns="http://www.w3.org/2000/svg" width="720" height="480" viewBox="0 0 720 480">
  <rect width="100%" height="100%" fill="white"/>
  <text x="360.0" y="28" text-anchor="middle" font-family="Arial" font-size="18">user2_spea2_diversity: cost vs time</text>
  <line x1="60" y1="420" x2="660" y2="420" stroke="#222"/>
  <line x1="60" y1="60" x2="60" y2="420" stroke="#222"/>
  <text x="360.0" y="464" text-anchor="middle" font-family="Arial" font-size="13">cost</text>
  <text transform="translate(18 240.0) rotate(-90)" text-anchor="middle" font-family="Arial" font-size="13">time</text>
  <circle cx="660.0" cy="79.5" r="5" fill="rgb(30,70,150)" opacity="0.8"/>
<circle cx="660.0" cy="79.5" r="5" fill="rgb(30,70,150)" opacity="0.8"/>
<circle cx="572.9" cy="60.0" r="5" fill="rgb(30,153,150)" opacity="0.8"/>
<circle cx="381.0" cy="205.9" r="5" fill="rgb(30,154,150)" opacity="0.8"/>
<circle cx="184.8" cy="412.7" r="5" fill="rgb(30,134,150)" opacity="0.8"/>
<circle cx="381.0" cy="205.9" r="5" fill="rgb(30,154,150)" opacity="0.8"/>
<circle cx="381.0" cy="205.9" r="5" fill="rgb(30,154,150)" opacity="0.8"/>
<circle cx="572.9" cy="60.0" r="5" fill="rgb(30,153,150)" opacity="0.8"/>
<circle cx="60.0" cy="145.1" r="5" fill="rgb(30,206,150)" opacity="0.8"/>
<circle cx="60.0" cy="145.1" r="5" fill="rgb(30,206,150)" opacity="0.8"/>
<circle cx="198.8" cy="420.0" r="5" fill="rgb(30,220,150)" opacity="0.8"/>
<circle cx="572.9" cy="60.0" r="5" fill="rgb(30,153,150)" opacity="0.8"/>
<circle cx="60.0" cy="145.1" r="5" fill="rgb(30,206,150)" opacity="0.8"/>
<circle cx="60.0" cy="145.1" r="5" fill="rgb(30,206,150)" opacity="0.8"/>
<circle cx="198.8" cy="420.0" r="5" fill="rgb(30,220,150)" opacity="0.8"/>
<circle cx="198.8" cy="420.0" r="5" fill="rgb(30,220,150)" opacity="0.8"/>
<circle cx="198.8" cy="420.0" r="5" fill="rgb(30,220,150)" opacity="0.8"/>
<circle cx="198.8" cy="420.0" r="5" fill="rgb(30,220,150)" opacity="0.8"/>
<circle cx="198.8" cy="420.0" r="5" fill="rgb(30,220,150)" opacity="0.8"/>
<circle cx="381.0" cy="205.9" r="5" fill="rgb(30,154,150)" opacity="0.8"/>
</svg>
