<svg xmlns="http://www.w3.org/2000/svg" width="720" height="480" viewBox="0 0 720 480">
  <rect width="100%" height="100%" fill="white"/>
  <text x="360.0" y="28" text-anchor="middle" font-family="Arial" font-size="18">user3_nsgaii_diversity: cost vs time</text>
  <line x1="60" y1="420" x2="660" y2="420" stroke="#222"/>
  <line x1="60" y1="60" x2="60" y2="420" stroke="#222"/>
  <text x="360.0" y="464" text-anchor="middle" font-family="Arial" font-size="13">cost</text>
  <text transform="translate(18 240.0) rotate(-90)" text-anchor="middle" font-family="Arial" font-size="13">time</text>
  <circle cx="421.3" cy="420.0" r="5" fill="rgb(30,216,150)" opacity="0.8"/>
<circle cx="421.3" cy="420.0" r="5" fill="rgb(30,216,150)" opacity="0.8"/>
<circle cx="421.3" cy="420.0" r="5" fill="rgb(30,216,150)" opacity="0.8"/>
<circle cx="421.3" cy="420.0" r="5" fill="rgb(30,216,150)" opacity="0.8"/>
<circle cx="421.3" cy="420.0" r="5" fill="rgb(30,216,150)" opacity="0.8"/>
<circle cx="421.3" cy="420.0" r="5" fill="rgb(30,216,150)" opacity="0.8"/>
<circle cx="421.3" cy="420.0" r="5" fill="rgb(30,216,150)" opacity="0.8"/>
<circle cx="421.3" cy="420.0" r="5" fill="rgb(30,216,150)" opacity="0.8"/>
<circle cx="421.3" cy="420.0" r="5" fill="rgb(30,216,150)" opacity="0.8"/>
<circle cx="421.3" cy="420.0" r="5" fill="rgb(30,216,150)" opacity="0.8"/>
<circle cx="421.3" cy="420.0" r="5" fill="rgb(30,216,150)" opacity="0.8"/>
<circle cx="421.3" cy="420.0" r="5" fill="rgb(30,216,150)" opacity="0.8"/>
<circle cx="421.3" cy="420.0" r="5" fill="rgb(30,216,150)" opacity="0.8"/>
<circle cx="421.3" cy="420.0" r="5" fill="rgb(30,216,150)" opacity="0.8"/>
<circle cx="421.3" cy="420.0" r="5" fill="rgb(30,216,150)" opacity="0.8"/>
<circle cx="421.3" cy="420.0" r="5" fill="rgb(30,216,150)" opacity="0.8"/>
<circle cx="660.0" cy="388.1" r="5" fill="rgb(30,154,150)" opacity="0.8"/>
<circle cx="208.4" cy="346.2" r="5" fill="rgb(30,220,150)" opacity="0.8"/>
<circle cx="208.4" cy="346.2" r="5" fill="rgb(30,220,150)" opacity="0.8"/>
<circle cx="208.4" cy="346.2" r="5" fill="rgb(30,220,150)" opacity="0.8"/>
<circle cx="208.4" cy="346.2" r="5" fill="rgb(30,220,150)" opacity="0.8"/>
<circle cx="208.4" cy="346.2" r="5" fill="rgb(30,220,150)" opacity="0.8"/>
<circle cx="208.4" cy="346.2" r="5" fill="rgb(30,220,150)" opacity="0.8"/>
<circle cx="208.4" cy="346.2" r="5" fill="rgb(30,220,150)" opacity="0.8"/>
<circle cx="219.4" cy="331.9" r="5" fill="rgb(30,183,150)" opacity="0.8"/>
<circle cx="219.4" cy="331.9" r="5" fill="rgb(30,183,150)" opacity="0.8"/>
<circle cx="219.4" cy="331.9" r="5" fill="rgb(30,183,150)" opacity="0.8"/>
<circle cx="256.1" cy="331.9" r="5" fill="rgb(30,163,150)" opacity="0.8"/>
<circle cx="256.1" cy="331.9" r="5" fill="rgb(30,163,150)" opacity="0.8"/>
<circle cx="254.4" cy="311.0" r="5" fill="rgb(30,191,150)" opacity="0.8"/>
<circle cx="254.4" cy="311.0" r="5" fill="rgb(30,191,150)" opacity="0.8"/>
<circle cx="601.3" cy="294.5" r="5" fill="rgb(30,137,150)" opacity="0.8"/>
<circle cx="601.3" cy="294.5" r="5" fill="rgb(30,137,150)" opacity="0.8"/>
<circle cx="299.4" cy="263.7" r="5" fill="rgb(30,129,150)" opacity="0.8"/>
<circle cx="299.4" cy="263.7" r="5" fill="rgb(30,129,150)" opacity="0.8"/>
<circle cx="181.2" cy="254.9" r="5" fill="rgb(30,113,150)" opacity="0.8"/>
<circle cx="181.2" cy="254.9" r="5" fill="rgb(30,113,150)" opacity="0.8"/>
<circle cx="608.8" cy="197.6" r="5" fill="rgb(30,80,150)" opacity="0.8"/>
<circle cx="608.8" cy="197.6" r="5" fill="rgb(30,80,150)" opacity="0.8"/>
<circle cx="408.6" cy="178.9" r="5" fill="rgb(30,83,150)" opacity="0.8"/>
<circle cx="408.6" cy="178.9" r="5" fill="rgb(30,83,150)" opacity="0.8"/>
<circle cx="60.0" cy="170.1" r="5" fill="rgb(30,180,150)" opacity="0.8"/>
<circle cx="60.0" cy="170.1" r="5" fill="rgb(30,180,150)" opacity="0.8"/>
<circle cx="223.8" cy="148.1" r="5" fill="rgb(30,119,150)" opacity="0.8"/>
<circle cx="223.8" cy="148.1" r="5" fill="rgb(30,119,150)" opacity="0.8"/>
<circle cx="221.1" cy="145.9" r="5" fill="rgb(30,101,150)" opacity="0.8"/>
<circle cx="221.1" cy="145.9" r="5" fill="rgb(30,101,150)" opacity="0.8"/>
<circle cx="405.9" cy="126.1" r="5" fill="rgb(30,109,150)" opacity="0.8"/>
<circle cx="334.4" cy="60.0" r="5" fill="rgb(30,70,150)" opacity="0.8"/>
</svg>
