<svg xmlns="http://www.w3.org/2000/svg" width="720" height="480" viewBox="0 0 720 480">
  <rect width="100%" height="100%" fill="white"/>
  <text x="360.0" y="28" text-anchor="middle" font-family="Arial" font-size="18">user3_nsgaii_nodiversity: cost vs time</text>
  <line x1="60" y1="420" x2="660" y2="420" stroke="#222"/>
  <line x1="60" y1="60" x2="60" y2="420" stroke="#222"/>
  <text x="360.0" y="464" text-anchor="middle" font-family="Arial" font-size="13">cost</text>
  <text transform="translate(18 240.0) rotate(-90)" text-anchor="middle" font-family="Arial" font-size="13">time</text>
  <circle cx="538.8" cy="420.0" r="5" fill="rgb(30,159,150)" opacity="0.8"/>
<circle cx="660.0" cy="309.8" r="5" fill="rgb(30,108,150)" opacity="0.8"/>
<circle cx="72.3" cy="299.7" r="5" fill="rgb(30,220,150)" opacity="0.8"/>
<circle cx="60.0" cy="278.0" r="5" fill="rgb(30,170,150)" opacity="0.8"/>
<circle cx="577.9" cy="60.0" r="5" fill="rgb(30,70,150)" opacity="0.8"/>
<circle cx="660.0" cy="309.8" r="5" fill="rgb(30,108,150)" opacity="0.8"/>
<circle cx="448.7" cy="264.8" r="5" fill="rgb(30,91,150)" opacity="0.8"/>
<circle cx="290.0" cy="144.6" r="5" fill="rgb(30,116,150)" opacity="0.8"/>
<circle cx="290.0" cy="144.6" r="5" fill="rgb(30,116,150)" opacity="0.8"/>
<circle cx="328.8" cy="381.2" r="5" fill="rgb(30,163,150)" opacity="0.8"/>
<circle cx="113.8" cy="303.6" r="5" fill="rgb(30,218,150)" opacity="0.8"/>
<circle cx="230.7" cy="262.5" r="5" fill="rgb(30,147,150)" opacity="0.8"/>
<circle cx="199.4" cy="170.9" r="5" fill="rgb(30,138,150)" opacity="0.8"/>
<circle cx="376.2" cy="413.8" r="5" fill="rgb(30,172,150)" opacity="0.8"/>
<circle cx="139.4" cy="256.3" r="5" fill="rgb(30,149,150)" opacity="0.8"/>
<circle cx="448.7" cy="264.8" r="5" fill="rgb(30,91,150)" opacity="0.8"/>
<circle cx="549.5" cy="268.7" r="5" fill="rgb(30,85,150)" opacity="0.8"/>
<circle cx="385.3" cy="371.1" r="5" fill="rgb(30,144,150)" opacity="0.8"/>
<circle cx="214.9" cy="350.2" r="5" fill="rgb(30,187,150)" opacity="0.8"/>
<circle cx="150.1" cy="184.1" r="5" fill="rgb(30,142,150)" opacity="0.8"/>
<circle cx="353.2" cy="295.9" r="5" fill="rgb(30,128,150)" opacity="0.8"/>
<circle cx="215.7" cy="289.7" r="5" fill="rgb(30,151,150)" opacity="0.8"/>
<circle cx="126.6" cy="224.5" r="5" fill="rgb(30,149,150)" opacity="0.8"/>
<circle cx="130.1" cy="328.4" r="5" fill="rgb(30,203,150)" opacity="0.8"/>
<circle cx="126.6" cy="224.5" r="5" fill="rgb(30,149,150)" opacity="0.8"/>
<circle cx="545.5" cy="326.9" r="5" fill="rgb(30,116,150)" opacity="0.8"/>
<circle cx="130.1" cy="328.4" r="5" fill="rgb(30,203,150)" opacity="0.8"/>
<circle cx="182.5" cy="323.0" r="5" fill="rgb(30,198,150)" opacity="0.8"/>
<circle cx="204.7" cy="326.9" r="5" fill="rgb(30,185,150)" opacity="0.8"/>
<circle cx="182.5" cy="323.0" r="5" fill="rgb(30,198,150)" opacity="0.8"/>
<circle cx="150.1" cy="184.1" r="5" fill="rgb(30,142,150)" opacity="0.8"/>
<circle cx="174.8" cy="309.8" r="5" fill="rgb(30,178,150)" opacity="0.8"/>
<circle cx="294.6" cy="172.5" r="5" fill="rgb(30,87,150)" opacity="0.8"/>
<circle cx="214.9" cy="350.2" r="5" fill="rgb(30,187,150)" opacity="0.8"/>
<circle cx="327.5" cy="326.9" r="5" fill="rgb(30,132,150)" opacity="0.8"/>
<circle cx="549.5" cy="268.7" r="5" fill="rgb(30,85,150)" opacity="0.8"/>
<circle cx="376.2" cy="413.8" r="5" fill="rgb(30,172,150)" opacity="0.8"/>
<circle cx="174.8" cy="309.8" r="5" fill="rgb(30,178,150)" opacity="0.8"/>
<circle cx="294.6" cy="295.9" r="5" fill="rgb(30,129,150)" opacity="0.8"/>
<circle cx="317.6" cy="367.2" r="5" fill="rgb(30,150,150)" opacity="0.8"/>
<circle cx="317.6" cy="367.2" r="5" fill="rgb(30,150,150)" opacity="0.8"/>
<circle cx="353.2" cy="295.9" r="5" fill="rgb(30,128,150)" opacity="0.8"/>
<circle cx="60.0" cy="278.0" r="5" fill="rgb(30,170,150)" opacity="0.8"/>
<circle cx="385.3" cy="371.1" r="5" fill="rgb(30,144,150)" opacity="0.8"/>
<circle cx="538.8" cy="420.0" r="5" fill="rgb(30,159,150)" opacity="0.8"/>
<circle cx="151.2" cy="295.9" r="5" fill="rgb(30,169,150)" opacity="0.8"/>
<circle cx="147.2" cy="284.2" r="5" fill="rgb(30,166,150)" opacity="0.8"/>
<circle cx="147.2" cy="284.2" r="5" fill="rgb(30,166,150)" opacity="0.8"/>
<circle cx="113.8" cy="303.6" r="5" fill="rgb(30,218,150)" opacity="0.8"/>
<circle cx="72.3" cy="299.7" r="5" fill="rgb(30,220,150)" opacity="0.8"/>
</svg>
