<svg xmlns="http://www.w3.org/2000/svg" width="720" height="480" viewBox="0 0 720 480">
  <rect width="100%" height="100%" fill="white"/>
  <text x="360.0" y="28" text-anchor="middle" font-family="Arial" font-size="18">user3_spea2_nodiversity: cost vs time</text>
  <line x1="60" y1="420" x2="660" y2="420" stroke="#222"/>
  <line x1="60" y1="60" x2="60" y2="420" stroke="#222"/>
  <text x="360.0" y="464" text-anchor="middle" font-family="Arial" font-size="13">cost</text>
  <text transform="translate(18 240.0) rotate(-90)" text-anchor="middle" font-family="Arial" font-size="13">time</text>
  <circle cx="392.6" cy="60.0" r="5" fill="rgb(30,82,150)" opacity="0.8"/>
<circle cx="562.5" cy="280.8" r="5" fill="rgb(30,92,150)" opacity="0.8"/>
<circle cx="191.1" cy="74.6" r="5" fill="rgb(30,104,150)" opacity="0.8"/>
<circle cx="245.5" cy="139.0" r="5" fill="rgb(30,115,150)" opacity="0.8"/>
<circle cx="588.9" cy="194.9" r="5" fill="rgb(30,70,150)" opacity="0.8"/>
<circle cx="287.7" cy="385.6" r="5" fill="rgb(30,166,150)" opacity="0.8"/>
<circle cx="287.7" cy="385.6" r="5" fill="rgb(30,166,150)" opacity="0.8"/>
<circle cx="482.2" cy="132.2" r="5" fill="rgb(30,89,150)" opacity="0.8"/>
<circle cx="215.7" cy="308.3" r="5" fill="rgb(30,169,150)" opacity="0.8"/>
<circle cx="247.7" cy="347.8" r="5" fill="rgb(30,163,150)" opacity="0.8"/>
<circle cx="460.9" cy="296.3" r="5" fill="rgb(30,114,150)" opacity="0.8"/>
<circle cx="434.8" cy="323.8" r="5" fill="rgb(30,123,150)" opacity="0.8"/>
<circle cx="404.3" cy="310.9" r="5" fill="rgb(30,137,150)" opacity="0.8"/>
<circle cx="191.1" cy="74.6" r="5" fill="rgb(30,104,150)" opacity="0.8"/>
<circle cx="538.5" cy="218.9" r="5" fill="rgb(30,84,150)" opacity="0.8"/>
<circle cx="251.4" cy="244.7" r="5" fill="rgb(30,99,150)" opacity="0.8"/>
<circle cx="562.5" cy="280.8" r="5" fill="rgb(30,92,150)" opacity="0.8"/>
<circle cx="128.6" cy="265.3" r="5" fill="rgb(30,155,150)" opacity="0.8"/>
<circle cx="172.0" cy="314.3" r="5" fill="rgb(30,192,150)" opacity="0.8"/>
<circle cx="113.8" cy="176.8" r="5" fill="rgb(30,123,150)" opacity="0.8"/>
<circle cx="474.2" cy="420.0" r="5" fill="rgb(30,132,150)" opacity="0.8"/>
<circle cx="128.6" cy="265.3" r="5" fill="rgb(30,155,150)" opacity="0.8"/>
<circle cx="179.1" cy="278.2" r="5" fill="rgb(30,182,150)" opacity="0.8"/>
<circle cx="248.6" cy="338.4" r="5" fill="rgb(30,173,150)" opacity="0.8"/>
<circle cx="220.0" cy="194.9" r="5" fill="rgb(30,126,150)" opacity="0.8"/>
<circle cx="113.8" cy="176.8" r="5" fill="rgb(30,123,150)" opacity="0.8"/>
<circle cx="148.0" cy="233.6" r="5" fill="rgb(30,147,150)" opacity="0.8"/>
<circle cx="186.8" cy="329.8" r="5" fill="rgb(30,220,150)" opacity="0.8"/>
<circle cx="396.0" cy="310.9" r="5" fill="rgb(30,139,150)" opacity="0.8"/>
<circle cx="482.2" cy="132.2" r="5" fill="rgb(30,89,150)" opacity="0.8"/>
<circle cx="226.8" cy="241.3" r="5" fill="rgb(30,120,150)" opacity="0.8"/>
<circle cx="224.6" cy="321.2" r="5" fill="rgb(30,168,150)" opacity="0.8"/>
<circle cx="380.0" cy="143.3" r="5" fill="rgb(30,94,150)" opacity="0.8"/>
<circle cx="380.0" cy="143.3" r="5" fill="rgb(30,94,150)" opacity="0.8"/>
<circle cx="660.0" cy="299.7" r="5" fill="rgb(30,105,150)" opacity="0.8"/>
<circle cx="60.0" cy="273.9" r="5" fill="rgb(30,174,150)" opacity="0.8"/>
<circle cx="395.1" cy="246.4" r="5" fill="rgb(30,124,150)" opacity="0.8"/>
<circle cx="395.1" cy="246.4" r="5" fill="rgb(30,124,150)" opacity="0.8"/>
<circle cx="660.0" cy="299.7" r="5" fill="rgb(30,105,150)" opacity="0.8"/>
<circle cx="224.6" cy="321.2" r="5" fill="rgb(30,168,150)" opacity="0.8"/>
<circle cx="368.9" cy="285.1" r="5" fill="rgb(30,157,150)" opacity="0.8"/>
<circle cx="195.7" cy="273.9" r="5" fill="rgb(30,141,150)" opacity="0.8"/>
<circle cx="195.7" cy="273.9" r="5" fill="rgb(30,141,150)" opacity="0.8"/>
<circle cx="93.5" cy="230.1" r="5" fill="rgb(30,132,150)" opacity="0.8"/>
<circle cx="474.2" cy="420.0" r="5" fill="rgb(30,132,150)" opacity="0.8"/>
<circle cx="248.6" cy="338.4" r="5" fill="rgb(30,173,150)" opacity="0.8"/>
<circle cx="186.8" cy="329.8" r="5" fill="rgb(30,220,150)" opacity="0.8"/>
<circle cx="225.2" cy="104.7" r="5" fill="rgb(30,113,150)" opacity="0.8"/>
<circle cx="225.2" cy="104.7" r="5" fill="rgb(30,113,150)" opacity="0.8"/>
<circle cx="220.0" cy="194.9" r="5" fill="rgb(30,126,150)" opacity="0.8"/>
</svg>
