<svg xmlns="http://www.w3.org/2000/svg" width="720" height="480" viewBox="0 0 720 480">
  <rect width="100%" height="100%" fill="white"/>
  <text x="360.0" y="28" text-anchor="middle" font-family="Arial" font-size="18">user125_spea2_diversity: cost vs time</text>
  <line x1="60" y1="420" x2="660" y2="420" stroke="#222"/>
  <line x1="60" y1="60" x2="60" y2="420" stroke="#222"/>
  <text x="360.0" y="464" text-anchor="middle" font-family="Arial" font-size="13">cost</text>
  <text transform="translate(18 240.0) rotate(-90)" text-anchor="middle" font-family="Arial" font-size="13">time</text>
  <circle cx="242.3" cy="238.1" r="5" fill="rgb(30,220,150)" opacity="0.8"/>
<circle cx="300.2" cy="60.0" r="5" fill="rgb(30,220,150)" opacity="0.8"/>
<circle cx="221.8" cy="344.3" r="5" fill="rgb(30,220,150)" opacity="0.8"/>
<circle cx="381.8" cy="297.5" r="5" fill="rgb(30,220,150)" opacity="0.8"/>
<circle cx="300.2" cy="60.0" r="5" fill="rgb(30,220,150)" opacity="0.8"/>
<circle cx="474.5" cy="338.4" r="5" fill="rgb(30,70,150)" opacity="0.8"/>
<circle cx="536.9" cy="264.1" r="5" fill="rgb(30,220,150)" opacity="0.8"/>
<circle cx="381.8" cy="297.5" r="5" fill="rgb(30,220,150)" opacity="0.8"/>
<circle cx="337.2" cy="338.4" r="5" fill="rgb(30,70,150)" opacity="0.8"/>
<circle cx="376.2" cy="260.4" r="5" fill="rgb(30,220,150)" opacity="0.8"/>
<circle cx="60.0" cy="265.6" r="5" fill="rgb(30,220,150)" opacity="0.8"/>
<circle cx="164.9" cy="296.0" r="5" fill="rgb(30,220,150)" opacity="0.8"/>
<circle cx="164.9" cy="296.0" r="5" fill="rgb(30,220,150)" opacity="0.8"/>
<circle cx="381.8" cy="297.5" r="5" fill="rgb(30,220,150)" opacity="0.8"/>
<circle cx="536.9" cy="264.1" r="5" fill="rgb(30,220,150)" opacity="0.8"/>
<circle cx="164.6" cy="270.1" r="5" fill="rgb(30,220,150)" opacity="0.8"/>
<circle cx="322.5" cy="304.9" r="5" fill="rgb(30,220,150)" opacity="0.8"/>
<circle cx="536.9" cy="264.1" r="5" fill="rgb(30,220,150)" opacity="0.8"/>
<circle cx="474.5" cy="338.4" r="5" fill="rgb(30,70,150)" opacity="0.8"/>
<circle cx="309.6" cy="201.0" r="5" fill="rgb(30,70,150)" opacity="0.8"/>
<circle cx="164.6" cy="270.1" r="5" fill="rgb(30,220,150)" opacity="0.8"/>
<circle cx="330.9" cy="386.6" r="5" fill="rgb(30,70,150)" opacity="0.8"/>
<circle cx="520.2" cy="420.0" r="5" fill="rgb(30,220,150)" opacity="0.8"/>
<circle cx="381.8" cy="297.5" r="5" fill="rgb(30,220,150)" opacity="0.8"/>
<circle cx="337.2" cy="338.4" r="5" fill="rgb(30,70,150)" opacity="0.8"/>
<circle cx="536.9" cy="264.1" r="5" fill="rgb(30,220,150)" opacity="0.8"/>
<circle cx="660.0" cy="234.4" r="5" fill="rgb(30,70,150)" opacity="0.8"/>
<circle cx="660.0" cy="234.4" r="5" fill="rgb(30,70,150)" opacity="0.8"/>
<circle cx="337.2" cy="338.4" r="5" fill="rgb(30,70,150)" opacity="0.8"/>
<circle cx="221.8" cy="344.3" r="5" fill="rgb(30,220,150)" opacity="0.8"/>
<circle cx="164.6" cy="270.1" r="5" fill="rgb(30,220,150)" opacity="0.8"/>
<circle cx="309.6" cy="201.0" r="5" fill="rgb(30,70,150)" opacity="0.8"/>
<circle cx="660.0" cy="234.4" r="5" fill="rgb(30,70,150)" opacity="0.8"/>
<circle cx="337.2" cy="338.4" r="5" fill="rgb(30,70,150)" opacity="0.8"/>
<circle cx="356.7" cy="182.5" r="5" fill="rgb(30,220,150)" opacity="0.8"/>
<circle cx="309.6" cy="201.0" r="5" fill="rgb(30,70,150)" opacity="0.8"/>
<circle cx="660.0" cy="234.4" r="5" fill="rgb(30,70,150)" opacity="0.8"/>
<circle cx="356.7" cy="182.5" r="5" fill="rgb(30,220,150)" opacity="0.8"/>
<circle cx="228.7" cy="193.6" r="5" fill="rgb(30,70,150)" opacity="0.8"/>
<circle cx="381.8" cy="297.5" r="5" fill="rgb(30,220,150)" opacity="0.8"/>
<circle cx="300.2" cy="60.0" r="5" fill="rgb(30,220,150)" opacity="0.8"/>
<circle cx="300.2" cy="60.0" r="5" fill="rgb(30,220,150)" opacity="0.8"/>
<circle cx="300.2" cy="60.0" r="5" fill="rgb(30,220,150)" opacity="0.8"/>
<circle cx="300.2" cy="60.0" r="5" fill="rgb(30,220,150)" opacity="0.8"/>
<circle cx="356.7" cy="182.5" r="5" fill="rgb(30,220,150)" opacity="0.8"/>
<circle cx="445.9" cy="405.2" r="5" fill="rgb(30,70,150)" opacity="0.8"/>
<circle cx="445.9" cy="405.2" r="5" fill="rgb(30,70,150)" opacity="0.8"/>
<circle cx="445.9" cy="405.2" r="5" fill="rgb(30,70,150)" opacity="0.8"/>
<circle cx="445.9" cy="405.2" r="5" fill="rgb(30,70,150)" opacity="0.8"/>
<circle cx="300.2" cy="60.0" r="5" fill="rgb(30,220,150)" opacity="0.8"/>
</svg>
